<svg width="32" height="32" viewBox="0 0 32 32" fill="none" xmlns="http://www.w3.org/2000/svg">
<rect width="32" height="32" rx="8" fill="#99EF4D"/>
<path d="M16.326 23.4134L16.442 23.4148H17.1351L17.2511 23.4163H17.5977L17.7137 23.4207L17.8297 23.4236L17.9442 23.425L18.1762 23.4309L18.4068 23.4396L18.5228 23.4512L18.6388 23.4643L18.699 23.476L18.7548 23.4862L18.8693 23.5095L18.9853 23.5153L19.1013 23.5226L19.2173 23.5328L19.3319 23.5473L19.4347 23.5895L19.4479 23.5968L19.5639 23.639L19.6799 23.6448L19.7944 23.6652L19.8576 23.7016L19.9104 23.7365L20.1424 23.7977L20.1689 23.8151L20.257 23.8617L20.373 23.9039L20.4112 23.9287L20.489 23.9694L20.605 24.0146L20.6388 24.0408L20.7195 24.0873L20.8355 24.1456L20.8443 24.1543L20.9515 24.2227L21.0176 24.2678L21.0675 24.3057L21.1821 24.3799L21.2981 24.4527L21.3436 24.4935L21.4141 24.5517L21.4699 24.607L21.5301 24.6638L21.5874 24.7205L21.6446 24.7758L21.7093 24.8326L21.7606 24.8836L21.8253 24.9461L21.8767 24.9971L21.9325 25.0597L21.9927 25.1208L22.0382 25.1718L22.1072 25.2533L22.141 25.2853L22.1894 25.3988L22.2232 25.4352L22.2819 25.5109L22.3392 25.5997L22.3598 25.6245L22.417 25.738L22.4552 25.7948L22.4919 25.8515L22.5389 25.9636L22.5698 26.0102L22.6123 26.0771L22.6344 26.1907L22.6858 26.2809L22.7048 26.3028L22.743 26.4163L22.7621 26.5298L22.8018 26.6143L22.8179 26.6434L22.8488 26.7555L22.8737 26.869L22.8972 26.9825L22.9178 27.0291L22.9427 27.0946L22.9589 27.2082L22.9662 27.3217L22.9824 27.4338L22.9912 27.5473L22.9941 27.6608L23 27.7744L22.9868 27.8865L22.9178 27.9578L22.8018 27.9854L22.6858 27.9869L22.5698 27.9913H22.4552L22.3392 27.9927L22.2232 27.9956H22.1072L21.9927 27.9971H21.6446L21.5301 27.9956H21.2981L21.1821 27.9927L21.0675 27.9956L20.9515 27.9927L20.7195 27.9956H20.605L20.489 27.9971H20.373L20.257 28H20.1424L20.0264 27.9971L19.9104 28L19.7944 27.9985L19.6799 28L19.5639 27.9971L19.4479 28H19.2173L19.1013 27.9971H18.8693L18.7548 27.9956H18.4068L18.2922 27.9971H18.0602L17.9442 28H17.3671L17.2511 27.9971H17.1351L17.0191 27.9956L16.9046 27.9927H16.7885L16.6725 27.9913H16.21L16.094 27.9884H15.7474L15.6314 27.9869H15.5169L15.4009 27.9884H15.2849L15.1689 27.9913L15.0543 27.9884H14.7063L14.5918 27.9869H13.7812L13.6667 27.9854L13.5507 27.9869H13.3186L13.2041 27.9884H12.8561L12.7416 27.9898L12.3935 27.9854L12.279 27.952L12.2129 27.8865L12.1924 27.7744L12.1938 27.6608L12.1924 27.5473V26.9825L12.1909 26.869V26.5298L12.1924 26.4163V26.1907L12.1938 26.0771L12.1924 25.9636V25.8515L12.1938 25.738V25.6245L12.1909 25.3988V24.7205L12.1924 24.607L12.1909 24.4935L12.1924 24.3799V24.2678L12.1938 24.1543L12.1924 24.0408V23.7016L12.1938 23.5895L12.2511 23.476L12.279 23.4512L12.3935 23.4265H12.5095L12.6256 23.425L12.8561 23.4163L12.9721 23.4178H13.0881L13.2041 23.4163H13.3186L13.4347 23.4148H15.7474L15.8634 23.4134H16.326ZM22.4552 4L22.5698 4.00291H22.6858L22.7107 4.02183L22.7944 4.13392L22.8018 4.24017V4.24745L22.8076 4.47453L22.8091 4.58661L22.8076 4.70015V4.81368L22.8062 4.92576V5.0393L22.8047 5.15284L22.8018 5.26492V5.74672L22.8003 5.83115L22.7974 5.94469V6.17031L22.7959 6.28384V6.623L22.793 6.73654L22.7944 6.84862V6.96215L22.7959 7.07569V7.41485L22.7974 7.52838V7.754L22.7988 7.86754L22.7974 7.97962L22.8003 8.09316V8.43231L22.8018 8.54585V8.88501L22.8047 8.99854V9.22416L22.8062 9.3377V9.45124L22.8076 9.56332V9.90247L22.8106 10.016L22.8076 10.1295L22.8106 10.2416V10.5822L22.812 10.6943V10.8079L22.8091 11.0335L22.8062 11.147L22.8047 11.2606L22.8018 11.3392L22.8003 11.3726L22.7885 11.5997L22.7812 11.7132L22.7695 11.8253L22.7606 11.9389L22.7577 12.0524L22.7533 12.1645L22.7504 12.278L22.7416 12.3916L22.7283 12.5051L22.7166 12.6172L22.6858 12.7089L22.6769 12.7307L22.6402 12.8443L22.627 12.9563L22.6226 13.0699L22.5991 13.1834L22.5698 13.2678L22.558 13.2955L22.5198 13.409L22.5022 13.5226L22.4758 13.6361L22.4552 13.687L22.4302 13.7482L22.4009 13.8617L22.373 13.9753L22.3392 14.0408L22.3128 14.0873L22.2907 14.2009L22.2643 14.3144L22.2232 14.3814L22.1924 14.4265L22.1674 14.54L22.138 14.6536L22.1072 14.6929L22.0573 14.7671L22.0352 14.8792L21.9927 14.9651L21.9706 14.9927L21.9207 15.1063L21.8767 15.1878L21.8546 15.2183L21.8076 15.3319L21.7606 15.4105L21.7357 15.4454L21.696 15.559L21.6446 15.6245L21.6065 15.671L21.5639 15.7846L21.5301 15.8282L21.4802 15.8981L21.4229 16.0102L21.4141 16.0218L21.3583 16.1237L21.2981 16.198L21.2628 16.2373L21.2247 16.3493L21.1821 16.3959L21.1278 16.4629L21.0675 16.5502L21.0411 16.5764L20.9765 16.69L20.9515 16.7162L20.8825 16.802L20.8355 16.8617L20.7915 16.9156L20.7195 17.0015L20.6946 17.0291L20.6109 17.1412L20.605 17.1485L20.5125 17.2547L20.489 17.2809L20.4126 17.3683L20.373 17.4105L20.3069 17.4818L20.257 17.5298L20.2012 17.5939L20.1424 17.6463L20.0822 17.7074L20.0264 17.77L19.9736 17.821L19.9104 17.8923L19.8693 17.933L19.7944 18.0044L19.7518 18.0466L19.6799 18.1092L19.6285 18.1601L19.5639 18.2183L19.5007 18.2722L19.4479 18.3275L19.3789 18.3857L19.3319 18.4294L19.2496 18.4993L19.2173 18.5269L19.1175 18.6128L19.1013 18.6274L18.9853 18.7031L18.9618 18.7249L18.8693 18.7948L18.7548 18.8894L18.6637 18.952L18.6388 18.9723L18.5228 19.0437L18.4993 19.064L18.4068 19.1194L18.3275 19.1776L18.2922 19.2111L18.1762 19.2591L18.138 19.2911L18.0602 19.3493L17.975 19.4032L17.9442 19.4279L17.8297 19.4847L17.7885 19.5167L17.7137 19.5662L17.6079 19.6303L17.5977 19.639L17.4816 19.6885L17.4068 19.7438L17.3671 19.7787L17.2511 19.8166L17.1924 19.8559L17.1351 19.8952L17.0191 19.9389L16.9692 19.9694L16.9046 20.0058L16.7885 20.048L16.7357 20.083L16.6725 20.1208L16.5565 20.1499L16.4949 20.1951L16.442 20.2358L16.326 20.2649L16.2452 20.3086L16.21 20.3319L16.094 20.3683L15.9794 20.4105L15.9604 20.4221L15.8634 20.4658L15.7474 20.4993L15.6799 20.5357L15.6314 20.5633L15.5169 20.5852L15.4009 20.6157L15.3554 20.6477L15.2849 20.69L15.1689 20.7074L15.0543 20.7249L14.9383 20.7933L14.8223 20.8224L14.7063 20.837L14.5991 20.8748L14.5918 20.8777L14.4758 20.9156L14.3598 20.936L14.2438 20.9607L14.1512 20.9869L14.1292 20.9956L14.0132 21.0277L13.8972 21.0378L13.7812 21.0539L13.6667 21.083L13.6079 21.1004L13.5507 21.1179L13.4347 21.147L13.3186 21.1543L13.2041 21.1572L13.0881 21.1659L12.9721 21.1921L12.9031 21.214L12.8561 21.2285L12.7416 21.2475L12.6256 21.2722L12.3935 21.2751L12.279 21.2547L12.2261 21.214L12.1909 21.1004V20.9869L12.1894 20.8748V20.4221L12.188 20.3086V19.7438L12.1894 19.6303V19.4032L12.188 19.2911V19.064L12.1865 18.952V18.8384L12.185 18.7249V18.6128L12.1836 18.4993L12.185 18.3857V18.1601L12.188 17.933V17.7074L12.1894 17.5939V16.802L12.1909 16.69V16.3493L12.1894 16.2373V16.0102L12.188 15.8981L12.1894 15.7846V15.4454L12.1909 15.3319L12.188 15.1063V14.9927L12.1865 14.8792V14.54L12.185 14.4265L12.1806 14.3144L12.1747 14.2009L12.163 14.1077L12.1586 14.0873L12.1263 13.9753L12.1131 13.8617L12.0954 13.7482L12.047 13.6739L12.0147 13.6361L11.9706 13.5226L11.931 13.4818L11.8605 13.409L11.8164 13.3639L11.7327 13.2955L11.7004 13.2664L11.5844 13.2198L11.5374 13.1834L11.4684 13.1354L11.3539 13.1092L11.2496 13.0699L11.2379 13.0626L11.1219 13.0233L11.0059 13.0044L10.8913 12.9854L10.7753 12.9636L10.6593 12.9563H10.6564L10.5433 12.9345L10.4288 12.9301L10.0808 12.9258H9.04112L8.92511 12.9243H8L7.88399 12.9258H7.42144L7.30543 12.9229L7.1909 12.9214L7.07489 12.9054L7.01468 12.8443L7.00294 12.7307L7.00147 12.6172V12.0524L7.00294 11.9389V11.8253L7.00147 11.7132V11.2606L7 11.147L7.00147 11.0335V10.6943L7.00294 10.5822V10.4687L7.00441 10.3552V9.56332L7.00294 9.45124V9.3377L7.00441 9.22416L7.00294 9.11063L7.00441 8.99854V8.88501L7.00734 8.65939L7.01028 8.54585L7.07489 8.45124L7.10132 8.43231L7.1909 8.3901L7.30543 8.38719L7.42144 8.38574L7.65345 8.37991L7.76799 8.37846L7.88399 8.36972L8 8.35953L8.11601 8.33624L8.18355 8.31878L8.23054 8.30713L8.34655 8.28967L8.46256 8.26638L8.57856 8.26346L8.6931 8.2591L8.8091 8.25764L8.92511 8.24309L9.04112 8.2067L9.15565 8.16739L9.27166 8.1441L9.38767 8.131L9.50367 8.09607L9.51101 8.09316L9.61821 8.05531L9.73421 8.03057L9.85022 7.9869L9.86197 7.97962L9.96623 7.94032L10.0808 7.91994L10.1762 7.86754L10.1968 7.85007L10.3128 7.81223L10.4288 7.76856L10.4449 7.754L10.5433 7.69578L10.6593 7.6492L10.6696 7.64047L10.7753 7.58224L10.8737 7.52838L10.8913 7.51528L11.0059 7.45269L11.0587 7.41485L11.1219 7.37118L11.2276 7.30131L11.2379 7.29112L11.3539 7.21689L11.3818 7.18777L11.4684 7.12227L11.5389 7.07569L11.5844 7.03493L11.6681 6.96215L11.7004 6.93159L11.7959 6.84862L11.8164 6.83115L11.9178 6.73654L11.931 6.72198L12.0279 6.623L12.047 6.60408L12.1366 6.50946L12.2438 6.39738L12.279 6.36245L12.3524 6.28384L12.3935 6.24017L12.4449 6.17031L12.5095 6.09753L12.5536 6.05677L12.6256 5.97089L12.652 5.94469L12.7416 5.83843L12.7474 5.83115L12.8282 5.71761L12.8561 5.68705L12.9251 5.60553L12.9721 5.55459L13.0308 5.49199L13.0881 5.42795L13.1351 5.37846L13.2041 5.30131L13.2335 5.26492L13.3186 5.17613L13.3451 5.15284L13.4347 5.06259L13.4596 5.0393L13.5507 4.95051L13.5742 4.92576L13.6667 4.85153L13.7093 4.81368L13.7812 4.75255L13.8443 4.70015L13.8972 4.65648L13.9956 4.58661L14.0132 4.5706L14.1292 4.50655L14.1762 4.47453L14.2438 4.43231L14.3598 4.377L14.3818 4.36099L14.4758 4.3115L14.5918 4.28239L14.649 4.24745L14.7063 4.21397L14.8223 4.18486L14.9383 4.16448L15.0073 4.13392L15.0543 4.11208L15.1689 4.09025L15.2849 4.07132L15.4009 4.05531L15.5169 4.04512L15.7474 4.03348L15.9794 4.02766H16.7885L16.9046 4.03057H17.0191L17.1351 4.03202H17.5977L17.7137 4.03348H17.8297L17.9442 4.03493L18.0602 4.03348L18.1762 4.03493L18.2922 4.03348H18.4068L18.5228 4.03202H18.7548L18.8693 4.03348H19.2173L19.3319 4.03202H19.4479L19.5639 4.03057H20.257L20.489 4.02766L20.7195 4.02183H20.7401L20.8355 4.01892L20.9515 4.01747L21.0675 4.02038L21.1542 4.02183H21.4141L21.5301 4.02038L21.6446 4.01747H21.8767L21.9927 4.01456L22.1072 4.0131L22.2232 4.00291L22.3392 4H22.4552Z" fill="#20231D"/>
</svg>
