<?xml version="1.0" encoding="UTF-8"?>
<svg id="Layer_1" xmlns="http://www.w3.org/2000/svg" version="1.1" viewBox="0 0 2048 520.58">
  <!-- Generator: Adobe Illustrator 29.8.1, SVG Export Plug-In . SVG Version: 2.1.1 Build 2)  -->
  <defs>
    <style>
      .st0 {
        fill: #8ae03f;
        fill-rule: evenodd;
      }
    </style>
  </defs>
  <path class="st0" d="M2010.85,520.02c-486.11,1.85-972.51-.22-1458.69.62-103.26,0-206.59.08-309.84.07-20.86-.05-41.47-.04-62.27-.05-17.99,1.01-37.38-1.37-49.49-16.13-15.79-18.59-10.2-44.82-11.19-67.32-.92-68.55,1.8-137.45-1-205.86-5.43-28.94-31.74-36.61-57.94-33.84-18.1-1.78-40.38,5.38-53.94-10.08-11.49-13.25-5.34-32.08-6.81-47.97,1.39-12.27-3.59-29.9,3.63-39.52,7.72-6.49,27.89-2.87,38.48-6.54,33.18-6.6,63.9-25.4,85.19-51.62,6.6-7.85,11.88-15.89,16.68-24.92C156.39-5,184.96.64,206.4-.17c134.3,0,268.72-.07,403.03-.04,238.44.05,476.91-.02,715.35-.04,222.89.03,445.85.2,668.73.03,22.65-2.33,46.31,10.68,51.49,33.88,3.03,19.93.94,40.24,1.54,60.4,0,40.27.02,80.22.03,120.53-.07,60.84.07,121.57-.12,182.41-.02,20.51-.05,41.58.11,62.2,2.42,27.46-7.32,52.2-35.55,60.77l-.16.04ZM1247.92,365.98c42.27-1.65,91.12-17.38,108.92-59.43,2.83-6.7,4.96-13.74,5.77-21.05.67-5.45-3.14-4.87-7.22-4.88-6.07-.09-12.33.04-18.41,0-9.82.02-19.48-.25-29.48-.17-9.66-.14-9.02-.39-12.78,8.24-3.69,7.33-9.73,13.34-16.76,17.51-15.13,8.91-32.86,10.84-50.09,10.72-15.21-.31-30.48-3.7-43.46-11.9-10.7-6.81-19.26-17.34-21.91-29.84-2.82-13.58-2.3-28.8,4.22-41.3,14.34-26.1,47.6-31.55,74.79-29.42,20.84,1.65,44.22,9.32,54.22,29.18,1.37,3.29,2.99,5.33,6.81,5.15,4.42.15,9.56.14,14.41.14,10.72.03,21.52.03,32.18-.17,3.14-.04,6.59.02,9.67-.06,1.9.05,3.74-.89,3.59-3.15-1.84-16.52-8.95-32.6-20.78-44.41-23.21-24.8-58.11-33.78-90.93-35.81-11.46-1.27-23.54-1.05-35.02,0-20.65.73-41.2,5.43-60.36,13.26-36.98,15.51-58.19,47.55-58.93,87.45-.82,34.59,9.98,64.06,38.4,85.15,22.57,16.43,50.65,23,78.05,24.51,7.82.99,15.75.92,23.73.86,3.71.02,7.72-.14,11.2-.54l.16-.02ZM1770.23,365.98c69.63-3.45,123.99-39.61,117.79-115.31-2.05-42.47-28.51-73.09-68.29-86.47-18.84-6.54-38.72-8.79-58.51-9.69-7.79-.09-15.72-.16-23.39.81-5.91.1-11.78.69-17.64,1.45-36.35,4.85-72.88,19.67-91.45,53.11-8.79,16.02-11.86,34.49-11.47,52.58-.09,22.75,6.68,46.01,21.69,63.44,20.43,24.53,52.71,35.2,83.55,38.73,4.02.84,8.09.84,12.17,1.05,2.85.24,5.63.72,8.54.78,8.85.02,18.19.49,26.86-.47l.16-.02ZM338.49,309.06c51.03-6.7,90.53-47.87,85.58-100.76-.34-16.36.29-33.08-.24-49.31-.47-4.26-15.19-1.3-18.83-2.05-15.31.46-30.53-.57-45.83.44-9.66,1.37-16.71,8.55-22.56,16.03-4.86,5.92-10.13,11.47-16.87,15.13-34.81,17.39-32.76-11.13-32.38,36.73.38,3-1.04,7.37,1.14,9.81,7.57,1.61,16.07.15,23.99.64,21.27-.72,20.1,9.21,19.73,26.49.02,12.48-.05,25.42,0,38.01.04,4.82-1.18,11.21,6.12,8.86l.16-.03ZM819.75,362.89c10.44-2.33,8.58-14.32,8.64-22.68-.01-6.42-.01-12.78,0-19.18.03-25.27,0-50.37,0-75.62-.07-18.12.01-36.4-.07-54.53-.02-6.73-.03-13.4.02-20.11,0-2.97,0-5.9-.03-8.51-.01-1.52-.21-2.98-1.13-3.72-1.24-.96-3.07-.83-4.62-.84-3.77.02-7.11-.04-10.8-.04-8.97-.02-17.16.05-25.91.11-22.44.29-38.8-3.45-51.75,19.36-14.32,26.79-28.53,53.8-42.67,80.7-3.3,6.43-6.82,12.88-10.21,19.29-1.41,2-3.6,9.82-6.56,5.33-15.03-27.71-29.63-55.85-44.55-83.73-3.31-6.53-7.16-13.36-10.46-19.76-4.98-10.28-13.85-19.53-25.67-20.85-9.26-.88-18.67-.2-28.02-.38-13.92.22-27.46-.23-41.54.14-2.16.24-3.07,1.71-3.06,3.97-.03,5.13.03,10.48.04,15.73-.1,40.03-.07,80.22-.04,120.24.01,13.36.08,26.75.05,40.11.13,4.6-.36,9.59.41,14.09,2.18,10.25,11.04,11.85,20.21,11.35,10.48,0,19.93-.03,30.56-.05,2.59-.22,6.63.86,8.17-1.74,1.05-3,.3-6.85.51-9.98-.04-9.26,0-18.08.04-27.33.05-25.77-.23-51.28-.31-76.96-.05-4.53.01-9.4-.01-14.23,0-2.17-.52-9.64,2.57-4.89,8.09,14.2,15.76,29.17,23.63,43.57,9.41,17.21,18.83,34.4,28.19,51.64,4,7.21,7.89,14.55,11.97,21.83,1.94,3.45,3.92,6.9,5.82,10.37,1.75,3.18,3.89,6.83,7.82,7.37,7.46.69,14.84.09,22.29.21,5.26.32,9.18-1.71,11.94-6.36,5.91-9.3,10.91-19.18,16.25-28.8,12.11-22.54,24.68-44.6,36.5-67.24,4.79-9.09,9.65-18,14.45-27.1,2.45-4.29,6.56-14.04,5.99-1.97.03,21.34.02,43.35,0,64.83,0,20.48.01,40.85.03,61.3-.09,2.34.29,5.14,3,5.43,3.52.32,7.06.07,10.65.15,12.38-.28,25.16.62,37.48-.45l.16-.04ZM1075.2,362.57c2.99-5.47.53-13.17,1.3-19.51-1.57-6.44,4.69-28.98-5.99-26.84-39.48.39-78.98.06-118.5.16-34.18.48-24.91,2.66-25.79-31.95,1.21-6.07,32.81-1.43,40-2.8,24.51,0,48.72-.01,72.95.04,8.22-.14,16.97.16,25.43-.16,3.92-.41,2.74-5.36,2.93-8.23,0-10.46-.01-22.09-.02-32.7.38-3.56-1.73-5.65-5.35-5.14-39.2-.04-78.69.04-118.07-.06-6.54-1.04-20.04,3.85-18.11-7.18.72-7.83-1.63-16,1.04-22.97,3.08-1.72,7.67-.53,11.16-.86,36.07,0,72.42-.07,108.62-.07,34.82,1.09,24.15.91,25.74-29.77,1.95-25.12-5.05-14.68-27.12-16.71-27.75,0-55.67,0-83.3-.05-25.03.05-49.98-.04-75.12-.01-20.52,1.15-24.63-6.66-22.91,18.59.04,45.1,0,90.36.07,135.46-.01,11.78-.06,23.42.08,35.06.59,4.7-1.4,10.97,2.01,14.81,7.76,3.97,17.98.79,26.59,1.76,60.55-.71,121.97,1.39,182.27-.76l.11-.08ZM1520.6,362.48c2.95-50.15,0-101.48,1.02-152.09-1.4-7.71,20.8-2.85,26.19-4.1,16.59-.03,33.51-.03,50.28,0,12.33,2.36,7.42-10.06,8.34-17.6-.67-9.79,1.37-20.41-.91-29.79-53.05-3.21-107.46,0-161.08-1.04-21.18-.25-42.9-.08-63.88-.1-8.62-.78-3.49,18.06-4.81,23.7-.58,33.1-1.53,23.53,28.24,24.89,17.63.11,35.68-.18,53.27.11,1.35.1,2.42.95,2.61,2.25.74,41.55.25,83.08.47,124.63-.29,14.2-2.22,32.23,17.88,30.07,13.83-.65,28.8,1.42,42.26-.83l.1-.09ZM1765.92,316.12c-23.72,1.91-52.67-1.1-69.88-19.35-8.78-9.12-13.66-21.65-13.61-34.29-.3-9.84,1.18-19.17,5.76-28.12,6.94-13.6,21-21.45,35.11-25.8,14.43-4.47,29.94-5.07,44.87-3.26,23.18,2.62,46.25,14.08,53.13,38.09,5.15,18.18,2.38,39.68-11.2,53.57-11.2,12.28-28.02,17.2-44.02,19.14l-.16.02ZM425.18,367.61c.35-.56.48-1.28.48-1.96-.02-3.44-.91-6.74-1.98-10.01-3.38-10.41-11.56-18.77-21.43-23.14-8.57-3.93-17.86-4-27.16-4.04-10.22-.02-20.51,0-30.68,0-2.99.02-5.62,0-8.29.08-1.29.04-2.51.3-3.15,1.2-.58.75-.73,2.01-.75,3.03-.04,5.17-.02,10.42-.01,15.66,0,4.4-.02,9.1,0,13.97-.07,3.29-.22,6.62,4.1,6.48,12.36.04,25.26-.04,37.69.07,11.54.05,23.01.04,34.54,0,4.22,0,8.87.05,12.92-.04,1.28-.02,3.01-.2,3.64-1.19l.07-.11Z"/>
</svg>