<svg width="16" height="16" viewBox="0 0 16 16" fill="none" xmlns="http://www.w3.org/2000/svg">
<path d="M1.80668 11.3466L2.96668 9.02661C3.28668 8.37994 3.28668 7.62661 2.96668 6.97994L1.80668 4.65328C0.813348 2.66661 2.95335 0.566609 4.92001 1.60661L5.94668 2.15327C6.09335 2.22661 6.20668 2.34661 6.26668 2.49327L10.06 10.9266C10.2133 11.2733 10.0733 11.6799 9.74001 11.8533L4.91335 14.3933C2.95335 15.4333 0.813348 13.3333 1.80668 11.3466Z" fill="#BFC3BC"/>
<path d="M10.8733 10.3999L8.38668 4.87994C8.10668 4.25994 8.77335 3.63327 9.37335 3.95327L13.22 5.97994C14.8533 6.83994 14.8533 9.17328 13.22 10.0333L11.86 10.7466C11.4933 10.9333 11.0467 10.7799 10.8733 10.3999Z" fill="#BFC3BC"/>
</svg>
