<svg width="24" height="24" viewBox="0 0 24 24" fill="none" xmlns="http://www.w3.org/2000/svg">
<path d="M19.625 7.125C21.1438 7.125 22.375 5.89378 22.375 4.375C22.375 2.85622 21.1438 1.625 19.625 1.625C18.1062 1.625 16.875 2.85622 16.875 4.375C16.875 5.89378 18.1062 7.125 19.625 7.125Z" fill="#99EF4D"/>
<path d="M18.665 8.525C17.095 8.185 15.815 6.905 15.475 5.335C15.345 4.725 15.335 4.135 15.445 3.575C15.575 2.955 15.115 2.375 14.475 2.375H6.625C3.865 2.375 1.625 4.615 1.625 7.375V14.325C1.625 17.085 3.865 19.325 6.625 19.325H8.125C8.405 19.325 8.765 19.505 8.925 19.725L10.425 21.715C11.085 22.595 12.165 22.595 12.825 21.715L14.325 19.725C14.515 19.475 14.805 19.325 15.125 19.325H16.635C19.395 19.325 21.625 17.095 21.625 14.335V9.525C21.625 8.895 21.045 8.435 20.425 8.555C19.865 8.655 19.275 8.655 18.665 8.525ZM7.625 12.375C7.065 12.375 6.625 11.925 6.625 11.375C6.625 10.825 7.065 10.375 7.625 10.375C8.175 10.375 8.625 10.825 8.625 11.375C8.625 11.925 8.185 12.375 7.625 12.375ZM11.625 12.375C11.065 12.375 10.625 11.925 10.625 11.375C10.625 10.825 11.065 10.375 11.625 10.375C12.175 10.375 12.625 10.825 12.625 11.375C12.625 11.925 12.185 12.375 11.625 12.375ZM15.625 12.375C15.065 12.375 14.625 11.925 14.625 11.375C14.625 10.825 15.065 10.375 15.625 10.375C16.175 10.375 16.625 10.825 16.625 11.375C16.625 11.925 16.185 12.375 15.625 12.375Z" fill="#99EF4D"/>
</svg>
