<svg width="40" height="40" viewBox="0 0 40 40" fill="none" xmlns="http://www.w3.org/2000/svg">
<g clip-path="url(#clip0_247_850)">
<mask id="mask0_247_850" style="mask-type:luminance" maskUnits="userSpaceOnUse" x="0" y="0" width="40" height="40">
<path d="M39.802 0H0.197998V40H39.802V0Z" fill="white"/>
</mask>
<g mask="url(#mask0_247_850)">
<path d="M0.197998 19.2C0.197998 10.149 0.197998 5.62356 2.98193 2.81178C5.76588 0 10.2466 0 19.2079 0H20.7921C29.7534 0 34.2341 0 37.018 2.81178C39.802 5.62356 39.802 10.149 39.802 19.2V20.8C39.802 29.851 39.802 34.3764 37.018 37.1882C34.2341 40 29.7534 40 20.7921 40H19.2079C10.2466 40 5.76588 40 2.98193 37.1882C0.197998 34.3764 0.197998 29.851 0.197998 20.8V19.2Z" fill="#0077FF"/>
<path d="M21.2707 28.817C12.2442 28.817 7.09576 22.567 6.88123 12.167H11.4027C11.5512 19.8003 14.8845 23.0336 17.5247 23.7003V12.167H21.7823V18.7503C24.3895 18.467 27.1285 15.467 28.0526 12.167H32.3101C31.6006 16.2337 28.6303 19.2336 26.5181 20.467C28.6303 21.467 32.0133 24.0836 33.3004 28.817H28.6138C27.6072 25.6503 25.0991 23.2003 21.7823 22.867V28.817H21.2707Z" fill="white"/>
</g>
</g>
<defs>
<clipPath id="clip0_247_850">
<rect width="40" height="40" rx="20" fill="white"/>
</clipPath>
</defs>
</svg>
